# Blender v2.76 (sub 0) OBJ File: ''
# www.blender.org
mtllib skybox.mtl
o Cube
v 10.000000 -10.000000 -9.999999
v 10.000000 -10.000000 10.000000
v -10.000001 -10.000000 9.999998
v -9.999996 -10.000000 -10.000004
v 10.000005 10.000000 -9.999994
v 9.999993 10.000000 10.000006
v -10.000004 10.000000 9.999996
v -9.999999 10.000000 -10.000000
vt 0.749831 0.666564
vt 0.749831 0.333435
vt 0.999788 0.333435
vt 0.249917 0.333436
vt 0.499874 0.333436
vt 0.499874 0.666564
vt -0.000039 0.333436
vt 0.249918 0.666564
vt 0.499874 0.000307
vt 0.499874 0.999692
vt 0.249918 0.999693
vt 0.999788 0.666564
vt -0.000039 0.666565
vt 0.249917 0.000307
vn 0.000000 1.000000 -0.000000
vn 0.000000 -1.000000 -0.000000
vn -1.000000 -0.000000 -0.000000
vn 0.000000 -0.000000 -1.000000
vn 1.000000 0.000000 0.000000
vn -0.000000 -0.000000 1.000000
usemtl Material
s off
f 4/1/1 3/2/1 2/3/1
f 6/4/2 7/5/2 8/6/2
f 2/7/3 6/4/3 5/8/3
f 3/9/4 7/5/4 6/4/4
f 4/1/5 8/6/5 7/5/5
f 8/6/6 4/10/6 1/11/6
f 1/12/1 4/1/1 2/3/1
f 5/8/2 6/4/2 8/6/2
f 1/13/3 2/7/3 5/8/3
f 2/14/4 3/9/4 6/4/4
f 3/2/5 4/1/5 7/5/5
f 5/8/6 8/6/6 1/11/6
